<?xml version="1.0" encoding="UTF-8" standalone="no"?>
<!-- Created with Inkscape (http://www.inkscape.org/) -->

<svg
   width="30.301352mm"
   height="27.28702mm"
   viewBox="0 0 30.301352 27.28702"
   version="1.1"
   id="svg45724"
   inkscape:version="1.4.3 (0d15f75, 2025-12-25)"
   sodipodi:docname="lathe-process-2.svg"
   xmlns:inkscape="http://www.inkscape.org/namespaces/inkscape"
   xmlns:sodipodi="http://sodipodi.sourceforge.net/DTD/sodipodi-0.dtd"
   xmlns="http://www.w3.org/2000/svg"
   xmlns:svg="http://www.w3.org/2000/svg">
  <sodipodi:namedview
     id="namedview45726"
     pagecolor="#ffffff"
     bordercolor="#666666"
     borderopacity="1.0"
     inkscape:pageshadow="2"
     inkscape:pageopacity="0.0"
     inkscape:pagecheckerboard="0"
     inkscape:document-units="mm"
     showgrid="false"
     inkscape:zoom="1.8529742"
     inkscape:cx="173.23501"
     inkscape:cy="182.67928"
     inkscape:window-width="1280"
     inkscape:window-height="953"
     inkscape:window-x="-8"
     inkscape:window-y="-8"
     inkscape:window-maximized="1"
     inkscape:current-layer="layer3"
     inkscape:snap-global="false"
     fit-margin-top="1"
     fit-margin-left="1"
     fit-margin-right="1"
     fit-margin-bottom="1"
     inkscape:showpageshadow="2"
     inkscape:deskcolor="#d1d1d1" />
  <defs
     id="defs45721">
    <marker
       style="overflow:visible"
       id="Arrow2Mend"
       refX="0"
       refY="0"
       orient="auto"
       inkscape:stockid="Arrow2Mend"
       inkscape:isstock="true">
      <path
         transform="scale(-0.6)"
         d="M 8.7185878,4.0337352 -2.2072895,0.01601326 8.7185884,-4.0017078 c -1.7454984,2.3720609 -1.7354408,5.6174519 -6e-7,8.035443 z"
         style="fill:context-stroke;fill-rule:evenodd;stroke:context-stroke;stroke-width:0.625;stroke-linejoin:round"
         id="path2520" />
    </marker>
  </defs>
  <g
     inkscape:label="Capa 1"
     inkscape:groupmode="layer"
     id="layer1"
     style="display:inline"
     transform="translate(-11.485806,-10.118861)" />
  <g
     inkscape:groupmode="layer"
     id="layer3"
     inkscape:label="Capa 2"
     transform="translate(-11.485806,-10.118861)">
    <path
       style="fill:none;stroke:#000000;stroke-width:0.4;stroke-linecap:round;stroke-linejoin:miter;stroke-miterlimit:4;stroke-dasharray:none;stroke-opacity:1"
       d="m 19.284638,11.611169 h 11.914068 v 19.890437 l -11.362339,0.0357"
       id="path45835"
       sodipodi:nodetypes="cccc" />
    <path
       style="display:inline;fill:none;stroke:#000000;stroke-width:0.15;stroke-linecap:butt;stroke-linejoin:miter;stroke-miterlimit:4;stroke-dasharray:none;stroke-opacity:1"
       d="m 19.335121,11.611169 c -0.539253,0.509188 -1.230034,1.152226 -1.081061,2.574651 0.299594,4.623211 1.786775,8.414856 2.646045,12.620837 0.242183,1.394122 0.358553,2.773993 -0.05048,3.937698 -0.600866,1.021012 -1.257836,1.04919 -1.94794,0.06527 -0.612403,-1.617666 -0.325728,-3.081749 -0.222844,-4.406837 0.210708,-1.825144 0.533686,-3.327385 0.964783,-4.97694"
       id="path46613"
       sodipodi:nodetypes="ccccccc" />
    <path
       style="display:inline;fill:none;stroke:#35404a;stroke-width:0.4;stroke-linecap:butt;stroke-linejoin:miter;stroke-miterlimit:4;stroke-dasharray:none;stroke-opacity:1"
       d="m 40.237007,33.672961 -4.43563,-5.973706 -3.327993,1.028683 c -0.863853,0.285218 -1.077026,0.586726 -0.543694,1.489054 l 4.354077,6.051757"
       id="path46477"
       sodipodi:nodetypes="ccccc" />
    <path
       style="fill:none;stroke:#35404a;stroke-width:0.15;stroke-linecap:butt;stroke-linejoin:miter;stroke-miterlimit:4;stroke-dasharray:none;stroke-opacity:1"
       d="m 36.297165,36.112829 0.418553,-1.063462 2.244119,0.12834 0.360262,-1.493808 0.881772,-0.04838"
       id="path58506" />
    <path
       style="fill:#a4d541;fill-opacity:1;stroke:none;stroke-width:0.566929;stroke-linecap:round;stroke-linejoin:round;stroke-miterlimit:4;stroke-dasharray:none;stroke-dashoffset:4.99999;stroke-opacity:1"
       d="m 78.362179,117.71616 c 1.444088,-1.96906 1.902607,-4.67907 1.698218,-10.0371 -0.181132,-4.74838 -0.797573,-7.963693 -3.572389,-18.633337 -1.003463,-3.858492 -1.829112,-7.258291 -1.834774,-7.555111 -0.0057,-0.29682 -0.09165,-0.600386 -0.19108,-0.674591 -0.197503,-0.147396 -1.744164,-6.403738 -2.804249,-11.343362 -1.141233,-5.31775 -2.08458,-12.53841 -2.131465,-16.314876 -0.05034,-4.054977 0.280127,-5.117206 2.26038,-7.265527 l 1.137758,-1.234321 h 22.092223 22.092229 v 36.659318 36.659317 l -1.65861,0.17336 c -0.91223,0.0953 -9.73045,0.17336 -19.596052,0.17336 H 77.916913 Z"
       id="path62562"
       transform="scale(0.26458333)" />
    <path
       style="fill:#a4d541;fill-opacity:1;stroke:none;stroke-width:0.566929;stroke-linecap:round;stroke-linejoin:round;stroke-miterlimit:4;stroke-dasharray:none;stroke-dashoffset:4.99999;stroke-opacity:1"
       d="m 72.977495,117.47046 c -2.329884,-2.14275 -2.993082,-6.98578 -2.141288,-15.63685 0.68281,-6.934815 2.923289,-18.85401 3.383592,-18.000479 0.319933,0.593245 3.991526,15.555258 4.490709,18.299969 0.315071,1.73239 0.469503,4.00686 0.476355,7.01575 0.01133,4.97493 -0.289468,6.38034 -1.742973,8.1437 -0.680886,0.82603 -1.001765,0.99181 -2.089113,1.07934 -1.173169,0.0944 -1.379498,0.0162 -2.377282,-0.90143 z"
       id="path62601"
       transform="scale(0.26458333)" />
    <g
       id="g61197"
       transform="translate(0.14278846,-0.07139444)">
      <path
         style="display:inline;fill:none;stroke:#35404a;stroke-width:0.15;stroke-linecap:butt;stroke-linejoin:miter;stroke-miterlimit:4;stroke-dasharray:none;stroke-opacity:1"
         d="m 15.111799,21.703846 h 8.500718"
         id="path2989-4-87-5" />
      <path
         style="display:inline;fill:none;stroke:#35404a;stroke-width:0.15;stroke-linecap:butt;stroke-linejoin:miter;stroke-miterlimit:4;stroke-dasharray:none;stroke-opacity:1"
         d="m 24.670857,21.703846 h 2"
         id="path3143-8-21-0" />
      <path
         style="display:inline;fill:none;stroke:#35404a;stroke-width:0.15;stroke-linecap:butt;stroke-linejoin:miter;stroke-miterlimit:4;stroke-dasharray:none;stroke-opacity:1"
         d="m 27.791327,21.703846 h 7.429807"
         id="path2989-5-4-6-6" />
    </g>
    <path
       style="display:inline;fill:none;stroke:#e93d52;stroke-width:0.4;stroke-linecap:butt;stroke-linejoin:miter;stroke-miterlimit:4;stroke-dasharray:none;stroke-opacity:1;marker-end:url(#Arrow2Mend)"
       d="m 12.708173,18.205529 c 0.02011,-0.543386 0.490527,-1.554773 0.85673,-1.909796 1.0377,-1.090559 1.794061,-0.06855 1.999039,0.410517 1.459072,2.923178 1.096341,5.781291 0.713943,8.638702"
       id="path50003"
       sodipodi:nodetypes="cccc" />
    <path
       style="fill:#808080;stroke:#666666;stroke-width:0.305956"
       d="m 85.775352,85.232262 c -4.285938,-5.956236 -8.000021,-11.207928 -8.253518,-11.670427 -0.783892,-1.430194 -0.633088,-2.237829 0.528362,-2.82966 0.898732,-0.457959 12.427027,-4.121818 13.184876,-4.190344 0.165102,-0.01493 3.775212,4.647773 8.022466,10.36156 l 7.722282,10.388704 -1.06787,0.08267 c -1.18301,0.09158 -1.02607,-0.20846 -2.04867,3.9167 l -0.45629,1.840672 -4.23357,-0.189674 -4.233567,-0.189676 -0.618741,1.654497 c -0.340308,0.909975 -0.648982,1.6545 -0.685943,1.6545 -0.03696,0 -3.573879,-4.873283 -7.859817,-10.829518 z"
       id="path1"
       transform="matrix(0.26458333,0,0,0.26458333,11.50831,10.411169)" />
  </g>
</svg>
